<mxfile host="65bd71144e">
    <diagram id="gaB2WiqgyWT5VBhheBFr" name="第 1 页">
        <mxGraphModel dx="2319" dy="2037" grid="1" gridSize="10" guides="1" tooltips="1" connect="1" arrows="1" fold="1" page="1" pageScale="1" pageWidth="827" pageHeight="1169" math="0" shadow="0">
            <root>
                <mxCell id="0"/>
                <mxCell id="1" parent="0"/>
                <mxCell id="23" value="" style="whiteSpace=wrap;html=1;fillColor=#fff2cc;strokeColor=#d6b656;fontSize=16;" parent="1" vertex="1">
                    <mxGeometry x="170" width="740" height="490" as="geometry"/>
                </mxCell>
                <mxCell id="9" style="edgeStyle=none;html=1;entryX=0;entryY=0.5;entryDx=0;entryDy=0;fontSize=16;" parent="1" source="2" target="8" edge="1">
                    <mxGeometry relative="1" as="geometry"/>
                </mxCell>
                <mxCell id="21" value="1. 填写插件运行所需参数" style="edgeLabel;html=1;align=center;verticalAlign=middle;resizable=0;points=[];fontSize=16;" parent="9" vertex="1" connectable="0">
                    <mxGeometry x="-0.0341" y="4" relative="1" as="geometry">
                        <mxPoint as="offset"/>
                    </mxGeometry>
                </mxCell>
                <mxCell id="12" style="edgeStyle=none;html=1;entryX=0;entryY=0.5;entryDx=0;entryDy=0;fontSize=16;" parent="1" source="2" target="11" edge="1">
                    <mxGeometry relative="1" as="geometry"/>
                </mxCell>
                <mxCell id="22" value="2. 打开目标网站，使用插件" style="edgeLabel;html=1;align=center;verticalAlign=middle;resizable=0;points=[];fontSize=16;" parent="12" vertex="1" connectable="0">
                    <mxGeometry x="-0.0433" relative="1" as="geometry">
                        <mxPoint x="-1" as="offset"/>
                    </mxGeometry>
                </mxCell>
                <mxCell id="2" value="" style="shape=umlActor;verticalLabelPosition=bottom;verticalAlign=top;html=1;outlineConnect=0;fontSize=16;" parent="1" vertex="1">
                    <mxGeometry x="-10" y="160" width="30" height="60" as="geometry"/>
                </mxCell>
                <mxCell id="5" value="" style="rounded=1;whiteSpace=wrap;html=1;fillColor=#dae8fc;strokeColor=#6c8ebf;fontSize=16;" parent="1" vertex="1">
                    <mxGeometry x="430" y="70" width="430" height="380" as="geometry"/>
                </mxCell>
                <mxCell id="6" value="&lt;b&gt;&lt;font style=&quot;font-size: 26px;&quot;&gt;storage&lt;/font&gt;&lt;/b&gt;&lt;div&gt;&lt;div&gt;&lt;div&gt;config: {apiUrl，cookie，... }&lt;/div&gt;&lt;/div&gt;&lt;/div&gt;" style="ellipse;whiteSpace=wrap;html=1;verticalAlign=top;fontSize=16;" parent="1" vertex="1">
                    <mxGeometry x="540" y="100" width="250" height="80" as="geometry"/>
                </mxCell>
                <mxCell id="10" style="edgeStyle=none;html=1;entryX=0;entryY=0.5;entryDx=0;entryDy=0;startArrow=classic;startFill=1;fontSize=16;" parent="1" source="8" target="6" edge="1">
                    <mxGeometry relative="1" as="geometry">
                        <Array as="points"/>
                    </mxGeometry>
                </mxCell>
                <mxCell id="26" value="存取数据" style="edgeLabel;html=1;align=center;verticalAlign=middle;resizable=0;points=[];fontSize=16;" parent="10" vertex="1" connectable="0">
                    <mxGeometry x="0.0074" y="-1" relative="1" as="geometry">
                        <mxPoint as="offset"/>
                    </mxGeometry>
                </mxCell>
                <mxCell id="8" value="&lt;b&gt;popup.html&lt;/b&gt;" style="rounded=1;whiteSpace=wrap;html=1;fontSize=16;" parent="1" vertex="1">
                    <mxGeometry x="200" y="110" width="160" height="60" as="geometry"/>
                </mxCell>
                <mxCell id="11" value="" style="rounded=1;whiteSpace=wrap;html=1;fontSize=16;" parent="1" vertex="1">
                    <mxGeometry x="200" y="240" width="200" height="230" as="geometry"/>
                </mxCell>
                <mxCell id="20" style="edgeStyle=none;html=1;exitX=1;exitY=0.5;exitDx=0;exitDy=0;entryX=0;entryY=0.5;entryDx=0;entryDy=0;startArrow=classic;startFill=1;fontSize=16;" parent="1" source="14" target="16" edge="1">
                    <mxGeometry relative="1" as="geometry">
                        <Array as="points"/>
                    </mxGeometry>
                </mxCell>
                <mxCell id="32" value="事件交互" style="edgeLabel;html=1;align=center;verticalAlign=middle;resizable=0;points=[];fontSize=16;" parent="20" vertex="1" connectable="0">
                    <mxGeometry x="-0.0073" y="-3" relative="1" as="geometry">
                        <mxPoint as="offset"/>
                    </mxGeometry>
                </mxCell>
                <mxCell id="14" value="&lt;b&gt;content.html&lt;br&gt;&lt;/b&gt;- 创建dom&lt;br&gt;- 监听dom事件（下载按钮点击触发请求）&lt;br&gt;- background转发请求&lt;br&gt;- 接受background响应" style="rounded=0;whiteSpace=wrap;html=1;align=left;fontSize=16;" parent="1" vertex="1">
                    <mxGeometry x="215" y="330" width="175" height="130" as="geometry"/>
                </mxCell>
                <mxCell id="29" style="edgeStyle=none;html=1;exitX=1;exitY=0.5;exitDx=0;exitDy=0;startArrow=classic;startFill=1;entryX=0;entryY=0.5;entryDx=0;entryDy=0;fontSize=16;" parent="1" source="16" target="30" edge="1">
                    <mxGeometry relative="1" as="geometry">
                        <mxPoint x="940" y="335" as="targetPoint"/>
                    </mxGeometry>
                </mxCell>
                <mxCell id="63" value="&lt;font style=&quot;font-size: 16px;&quot;&gt;触发&lt;/font&gt;&lt;span style=&quot;font-size: 16px; background-color: light-dark(#ffffff, var(--ge-dark-color, #121212));&quot;&gt;下载&lt;/span&gt;" style="edgeLabel;html=1;align=center;verticalAlign=middle;resizable=0;points=[];" vertex="1" connectable="0" parent="29">
                    <mxGeometry x="-0.0278" y="1" relative="1" as="geometry">
                        <mxPoint as="offset"/>
                    </mxGeometry>
                </mxCell>
                <mxCell id="16" value="&lt;font style=&quot;font-size: 26px;&quot;&gt;&lt;b&gt;background.js&lt;br&gt;&lt;/b&gt;&lt;/font&gt;onMessage: 处理getCookies、sendRequest、setCookie&lt;br&gt;等事件，并异步返回结果" style="rounded=1;whiteSpace=wrap;html=1;fontSize=16;" parent="1" vertex="1">
                    <mxGeometry x="515" y="270" width="315" height="130" as="geometry"/>
                </mxCell>
                <mxCell id="18" style="edgeStyle=none;html=1;exitX=0.5;exitY=0;exitDx=0;exitDy=0;entryX=0.045;entryY=0.679;entryDx=0;entryDy=0;entryPerimeter=0;startArrow=classic;startFill=1;fontSize=16;" parent="1" source="14" target="6" edge="1">
                    <mxGeometry relative="1" as="geometry"/>
                </mxCell>
                <mxCell id="27" value="存取数据" style="edgeLabel;html=1;align=center;verticalAlign=middle;resizable=0;points=[];fontSize=16;" parent="18" vertex="1" connectable="0">
                    <mxGeometry x="-0.1" y="-2" relative="1" as="geometry">
                        <mxPoint as="offset"/>
                    </mxGeometry>
                </mxCell>
                <mxCell id="24" value="&lt;font&gt;浏览器&lt;/font&gt;" style="text;html=1;align=center;verticalAlign=middle;whiteSpace=wrap;rounded=0;fontSize=30;fontStyle=1" parent="1" vertex="1">
                    <mxGeometry x="410" width="220" height="30" as="geometry"/>
                </mxCell>
                <mxCell id="25" value="浏览器内核" style="text;html=1;align=center;verticalAlign=middle;whiteSpace=wrap;rounded=0;fontSize=26;fontStyle=1" parent="1" vertex="1">
                    <mxGeometry x="440" y="80" width="180" height="30" as="geometry"/>
                </mxCell>
                <mxCell id="28" value="目标网站" style="text;html=1;align=center;verticalAlign=middle;whiteSpace=wrap;rounded=0;fontSize=16;" parent="1" vertex="1">
                    <mxGeometry x="280" y="250" width="60" height="30" as="geometry"/>
                </mxCell>
                <mxCell id="30" value="自部署服务器" style="ellipse;whiteSpace=wrap;html=1;fontSize=16;" parent="1" vertex="1">
                    <mxGeometry x="960" y="295" width="120" height="80" as="geometry"/>
                </mxCell>
                <mxCell id="36" style="edgeStyle=none;html=1;exitX=1;exitY=0.3333333333333333;exitDx=0;exitDy=0;exitPerimeter=0;entryX=0;entryY=0.5;entryDx=0;entryDy=0;fontSize=16;" edge="1" parent="1" source="33" target="35">
                    <mxGeometry relative="1" as="geometry"/>
                </mxCell>
                <mxCell id="41" style="edgeStyle=none;html=1;entryX=0;entryY=0.5;entryDx=0;entryDy=0;fontSize=16;" edge="1" parent="1" target="39">
                    <mxGeometry relative="1" as="geometry">
                        <mxPoint x="30" y="-610" as="sourcePoint"/>
                    </mxGeometry>
                </mxCell>
                <mxCell id="42" value="2. 上传书文件" style="edgeLabel;html=1;align=center;verticalAlign=middle;resizable=0;points=[];fontSize=16;" vertex="1" connectable="0" parent="41">
                    <mxGeometry x="-0.0559" y="-1" relative="1" as="geometry">
                        <mxPoint x="-1" as="offset"/>
                    </mxGeometry>
                </mxCell>
                <mxCell id="33" value="Actor" style="shape=umlActor;verticalLabelPosition=bottom;verticalAlign=top;html=1;outlineConnect=0;fontSize=16;" vertex="1" parent="1">
                    <mxGeometry x="-10" y="-630" width="30" height="60" as="geometry"/>
                </mxCell>
                <mxCell id="37" style="edgeStyle=none;html=1;exitX=0.25;exitY=1;exitDx=0;exitDy=0;entryX=1;entryY=0.3333333333333333;entryDx=0;entryDy=0;entryPerimeter=0;fontSize=16;" edge="1" parent="1" source="35" target="33">
                    <mxGeometry relative="1" as="geometry"/>
                </mxCell>
                <mxCell id="38" value="1. 下载书文件" style="edgeLabel;html=1;align=center;verticalAlign=middle;resizable=0;points=[];fontSize=16;" vertex="1" connectable="0" parent="37">
                    <mxGeometry x="-0.0054" y="-2" relative="1" as="geometry">
                        <mxPoint as="offset"/>
                    </mxGeometry>
                </mxCell>
                <mxCell id="52" style="edgeStyle=none;html=1;exitX=1;exitY=0;exitDx=0;exitDy=0;startArrow=classic;startFill=1;fontSize=16;" edge="1" parent="1" source="35" target="53">
                    <mxGeometry relative="1" as="geometry">
                        <mxPoint x="280" y="-750" as="targetPoint"/>
                    </mxGeometry>
                </mxCell>
                <mxCell id="35" value="本地浏览器" style="rounded=1;whiteSpace=wrap;html=1;fontSize=16;" vertex="1" parent="1">
                    <mxGeometry x="130" y="-720" width="120" height="60" as="geometry"/>
                </mxCell>
                <mxCell id="39" value="私人&lt;span style=&quot;background-color: transparent;&quot;&gt;书籍服务器&lt;/span&gt;" style="ellipse;whiteSpace=wrap;html=1;fontSize=16;" vertex="1" parent="1">
                    <mxGeometry x="130" y="-610" width="120" height="80" as="geometry"/>
                </mxCell>
                <mxCell id="43" value="痛点" style="text;html=1;align=center;verticalAlign=middle;whiteSpace=wrap;rounded=0;fontSize=16;" vertex="1" parent="1">
                    <mxGeometry x="20" y="-800" width="60" height="30" as="geometry"/>
                </mxCell>
                <mxCell id="44" style="edgeStyle=none;html=1;exitX=0;exitY=0;exitDx=0;exitDy=0;entryX=0.5;entryY=1;entryDx=0;entryDy=0;fontSize=16;" edge="1" parent="1" source="51" target="62">
                    <mxGeometry relative="1" as="geometry">
                        <mxPoint x="1020" y="-710" as="targetPoint"/>
                    </mxGeometry>
                </mxCell>
                <mxCell id="58" value="3. 下载&lt;span style=&quot;color: rgb(0, 0, 0);&quot;&gt;请求&lt;/span&gt;" style="edgeLabel;html=1;align=center;verticalAlign=middle;resizable=0;points=[];fontSize=16;" vertex="1" connectable="0" parent="44">
                    <mxGeometry x="0.1064" y="-2" relative="1" as="geometry">
                        <mxPoint x="-43" y="20" as="offset"/>
                    </mxGeometry>
                </mxCell>
                <mxCell id="45" style="edgeStyle=none;html=1;exitX=0.5;exitY=0.5;exitDx=0;exitDy=0;exitPerimeter=0;entryX=0;entryY=0.5;entryDx=0;entryDy=0;fontSize=16;" edge="1" parent="1" source="47" target="55">
                    <mxGeometry relative="1" as="geometry"/>
                </mxCell>
                <mxCell id="46" value="1. 点击“下载”" style="edgeLabel;html=1;align=center;verticalAlign=middle;resizable=0;points=[];fontSize=16;" vertex="1" connectable="0" parent="45">
                    <mxGeometry x="-0.0559" y="-1" relative="1" as="geometry">
                        <mxPoint x="1" y="-21" as="offset"/>
                    </mxGeometry>
                </mxCell>
                <mxCell id="47" value="" style="shape=umlActor;verticalLabelPosition=bottom;verticalAlign=top;html=1;outlineConnect=0;fontSize=16;" vertex="1" parent="1">
                    <mxGeometry x="630" y="-620" width="30" height="60" as="geometry"/>
                </mxCell>
                <mxCell id="48" style="edgeStyle=none;html=1;exitX=0.5;exitY=1;exitDx=0;exitDy=0;entryX=1;entryY=0;entryDx=0;entryDy=0;fontSize=16;" edge="1" parent="1" source="62" target="51">
                    <mxGeometry relative="1" as="geometry">
                        <mxPoint x="964" y="-650" as="sourcePoint"/>
                        <mxPoint x="976.4264068711927" y="-588.2842712474619" as="targetPoint"/>
                    </mxGeometry>
                </mxCell>
                <mxCell id="49" value="4. 下载书文件" style="edgeLabel;html=1;align=center;verticalAlign=middle;resizable=0;points=[];fontSize=16;" vertex="1" connectable="0" parent="48">
                    <mxGeometry x="-0.0054" y="-2" relative="1" as="geometry">
                        <mxPoint x="31" y="3" as="offset"/>
                    </mxGeometry>
                </mxCell>
                <mxCell id="51" value="私人&lt;span style=&quot;background-color: transparent;&quot;&gt;书籍服务器&lt;/span&gt;" style="ellipse;whiteSpace=wrap;html=1;fontSize=16;" vertex="1" parent="1">
                    <mxGeometry x="1010" y="-610" width="120" height="80" as="geometry"/>
                </mxCell>
                <mxCell id="53" value="书源" style="ellipse;whiteSpace=wrap;html=1;fontSize=16;" vertex="1" parent="1">
                    <mxGeometry x="265" y="-810" width="120" height="80" as="geometry"/>
                </mxCell>
                <mxCell id="54" value="优化方案" style="text;html=1;align=center;verticalAlign=middle;whiteSpace=wrap;rounded=0;fontSize=16;" vertex="1" parent="1">
                    <mxGeometry x="800" y="-790" width="60" height="30" as="geometry"/>
                </mxCell>
                <mxCell id="56" style="edgeStyle=none;html=1;exitX=1;exitY=0.5;exitDx=0;exitDy=0;entryX=0;entryY=0.5;entryDx=0;entryDy=0;fontSize=16;" edge="1" parent="1" source="55" target="51">
                    <mxGeometry relative="1" as="geometry"/>
                </mxCell>
                <mxCell id="57" value="2.请求接口&lt;br&gt;携带资源链接" style="edgeLabel;html=1;align=center;verticalAlign=middle;resizable=0;points=[];fontSize=16;" vertex="1" connectable="0" parent="56">
                    <mxGeometry x="-0.27" y="2" relative="1" as="geometry">
                        <mxPoint x="12" y="-1" as="offset"/>
                    </mxGeometry>
                </mxCell>
                <mxCell id="55" value="本地浏览器（插件）" style="rounded=1;whiteSpace=wrap;html=1;fontSize=16;" vertex="1" parent="1">
                    <mxGeometry x="780" y="-640" width="100" height="100" as="geometry"/>
                </mxCell>
                <mxCell id="62" value="书源" style="ellipse;whiteSpace=wrap;html=1;fontSize=16;" vertex="1" parent="1">
                    <mxGeometry x="1010" y="-790" width="120" height="80" as="geometry"/>
                </mxCell>
            </root>
        </mxGraphModel>
    </diagram>
</mxfile>